<mxfile host="app.diagrams.net" agent="Mozilla/5.0 (Windows NT 10.0; Win64; x64) AppleWebKit/537.36 (KHTML, like Gecko) Chrome/139.0.0.0 Safari/537.36" version="28.1.1">
  <diagram name="Page-1" id="ymniYMPRB42IJxaPMMLy">
    <mxGraphModel dx="1722" dy="431" grid="1" gridSize="10" guides="1" tooltips="1" connect="1" arrows="1" fold="1" page="1" pageScale="1" pageWidth="850" pageHeight="1100" math="0" shadow="0">
      <root>
        <mxCell id="0" />
        <mxCell id="1" parent="0" />
        <mxCell id="0SMoKMoxOF2tVpJImqOv-1" value="" style="rounded=0;whiteSpace=wrap;html=1;fillColor=#dae8fc;gradientColor=#7ea6e0;strokeColor=#6c8ebf;" parent="1" vertex="1">
          <mxGeometry x="80" y="40" width="280" height="200" as="geometry" />
        </mxCell>
        <mxCell id="0SMoKMoxOF2tVpJImqOv-5" value="&lt;b&gt;Prometheus&lt;/b&gt;" style="text;html=1;align=center;verticalAlign=middle;resizable=0;points=[];autosize=1;strokeColor=none;fillColor=none;" parent="1" vertex="1">
          <mxGeometry x="180" y="40" width="90" height="30" as="geometry" />
        </mxCell>
        <mxCell id="0SMoKMoxOF2tVpJImqOv-13" style="edgeStyle=orthogonalEdgeStyle;rounded=0;orthogonalLoop=1;jettySize=auto;html=1;entryX=0;entryY=0.5;entryDx=0;entryDy=0;" parent="1" source="0SMoKMoxOF2tVpJImqOv-6" target="0SMoKMoxOF2tVpJImqOv-2" edge="1">
          <mxGeometry relative="1" as="geometry" />
        </mxCell>
        <mxCell id="0SMoKMoxOF2tVpJImqOv-6" value="&lt;b&gt;TSD&lt;/b&gt;" style="rounded=1;whiteSpace=wrap;html=1;fillColor=#d5e8d4;gradientColor=#97d077;strokeColor=#82b366;" parent="1" vertex="1">
          <mxGeometry x="220" y="102.5" width="90" height="50" as="geometry" />
        </mxCell>
        <mxCell id="0SMoKMoxOF2tVpJImqOv-7" value="" style="group;fillColor=#f8cecc;gradientColor=#ea6b66;strokeColor=#b85450;" parent="1" vertex="1" connectable="0">
          <mxGeometry x="425" y="82.5" width="160" height="90" as="geometry" />
        </mxCell>
        <mxCell id="0SMoKMoxOF2tVpJImqOv-2" value="" style="rounded=1;whiteSpace=wrap;html=1;fillColor=#fff2cc;gradientColor=#ffd966;strokeColor=#d6b656;" parent="0SMoKMoxOF2tVpJImqOv-7" vertex="1">
          <mxGeometry width="160" height="90" as="geometry" />
        </mxCell>
        <mxCell id="0SMoKMoxOF2tVpJImqOv-3" value="&lt;b&gt;NODE-1&lt;/b&gt;" style="text;html=1;align=center;verticalAlign=middle;resizable=0;points=[];autosize=1;strokeColor=none;fillColor=none;" parent="0SMoKMoxOF2tVpJImqOv-7" vertex="1">
          <mxGeometry x="55" width="70" height="30" as="geometry" />
        </mxCell>
        <mxCell id="0SMoKMoxOF2tVpJImqOv-4" value="&lt;b&gt;node_exporter&lt;/b&gt;" style="ellipse;whiteSpace=wrap;html=1;fillColor=#f8cecc;gradientColor=#ea6b66;strokeColor=#b85450;" parent="0SMoKMoxOF2tVpJImqOv-7" vertex="1">
          <mxGeometry x="10" y="20" width="100" height="60" as="geometry" />
        </mxCell>
        <mxCell id="0SMoKMoxOF2tVpJImqOv-12" style="edgeStyle=orthogonalEdgeStyle;rounded=0;orthogonalLoop=1;jettySize=auto;html=1;" parent="1" source="0SMoKMoxOF2tVpJImqOv-9" target="0SMoKMoxOF2tVpJImqOv-10" edge="1">
          <mxGeometry relative="1" as="geometry" />
        </mxCell>
        <mxCell id="0SMoKMoxOF2tVpJImqOv-9" value="" style="html=1;verticalLabelPosition=bottom;align=center;labelBackgroundColor=#ffffff;verticalAlign=top;strokeWidth=2;strokeColor=#0080F0;shadow=0;dashed=0;shape=mxgraph.ios7.icons.user;" parent="1" vertex="1">
          <mxGeometry x="-60" y="102.5" width="50" height="50" as="geometry" />
        </mxCell>
        <mxCell id="0SMoKMoxOF2tVpJImqOv-11" style="edgeStyle=orthogonalEdgeStyle;rounded=0;orthogonalLoop=1;jettySize=auto;html=1;" parent="1" source="0SMoKMoxOF2tVpJImqOv-10" target="0SMoKMoxOF2tVpJImqOv-6" edge="1">
          <mxGeometry relative="1" as="geometry" />
        </mxCell>
        <mxCell id="0SMoKMoxOF2tVpJImqOv-10" value="&lt;b&gt;HTTP Server&lt;/b&gt;" style="rounded=0;whiteSpace=wrap;html=1;fillColor=#f8cecc;gradientColor=#ea6b66;strokeColor=#b85450;" parent="1" vertex="1">
          <mxGeometry x="90" y="105" width="80" height="45" as="geometry" />
        </mxCell>
        <mxCell id="0SMoKMoxOF2tVpJImqOv-15" style="edgeStyle=orthogonalEdgeStyle;rounded=0;orthogonalLoop=1;jettySize=auto;html=1;entryX=0.5;entryY=1;entryDx=0;entryDy=0;" parent="1" source="0SMoKMoxOF2tVpJImqOv-14" target="0SMoKMoxOF2tVpJImqOv-10" edge="1">
          <mxGeometry relative="1" as="geometry" />
        </mxCell>
        <mxCell id="0SMoKMoxOF2tVpJImqOv-14" value="&lt;b&gt;Grafana&lt;/b&gt;" style="rounded=1;whiteSpace=wrap;html=1;fillColor=#e6d0de;gradientColor=#d5739d;strokeColor=#996185;" parent="1" vertex="1">
          <mxGeometry x="90" y="190" width="80" height="30" as="geometry" />
        </mxCell>
        <mxCell id="0SMoKMoxOF2tVpJImqOv-17" style="edgeStyle=orthogonalEdgeStyle;rounded=0;orthogonalLoop=1;jettySize=auto;html=1;" parent="1" source="0SMoKMoxOF2tVpJImqOv-16" target="0SMoKMoxOF2tVpJImqOv-14" edge="1">
          <mxGeometry relative="1" as="geometry" />
        </mxCell>
        <mxCell id="0SMoKMoxOF2tVpJImqOv-16" value="" style="html=1;verticalLabelPosition=bottom;align=center;labelBackgroundColor=#ffffff;verticalAlign=top;strokeWidth=2;strokeColor=#0080F0;shadow=0;dashed=0;shape=mxgraph.ios7.icons.user;" parent="1" vertex="1">
          <mxGeometry x="-50" y="180" width="50" height="50" as="geometry" />
        </mxCell>
        <mxCell id="Y_BPKVWQl_viQ-hRlt62-1" value="&lt;b&gt;Service Discovery&lt;/b&gt;" style="rounded=1;whiteSpace=wrap;html=1;fillColor=#fff2cc;gradientColor=#ffd966;strokeColor=#d6b656;" vertex="1" parent="1">
          <mxGeometry x="190" y="175" width="70" height="45" as="geometry" />
        </mxCell>
        <mxCell id="Y_BPKVWQl_viQ-hRlt62-2" value="&lt;b&gt;Alert&lt;br&gt;Manager&lt;/b&gt;" style="rounded=1;whiteSpace=wrap;html=1;fillColor=#fff2cc;gradientColor=#ffd966;strokeColor=#d6b656;" vertex="1" parent="1">
          <mxGeometry x="280" y="175" width="70" height="45" as="geometry" />
        </mxCell>
      </root>
    </mxGraphModel>
  </diagram>
</mxfile>
